Coordinates
version=1
nRows=7
nColumns=42
inDegrees=yes

Units are S.I. units (second, meters, Newtons, ...)
If the header above contains a line with 'inDegrees', this indicates whether rotational values are in degrees (yes) or radians (no).

endheader
time	pelvis_tilt	pelvis_list	pelvis_rotation	pelvis_tx	pelvis_ty	pelvis_tz	hip_flexion_r	hip_adduction_r	hip_rotation_r	knee_angle_r	knee_adduction_r	knee_angle_r_beta	ankle_angle_r	subtalar_angle_r	mtp_angle_r	hip_flexion_l	hip_adduction_l	hip_rotation_l	knee_angle_l	knee_adduction_l	knee_angle_l_beta	ankle_angle_l	subtalar_angle_l	mtp_angle_l	lumbar_extension	lumbar_bending	lumbar_rotation	arm_flex_r	arm_add_r	arm_rot_r	elbow_flex_r	pro_sup_r	wrist_flex_r	wrist_dev_r	arm_flex_l	arm_add_l	arm_rot_l	elbow_flex_l	pro_sup_l	wrist_flex_l	wrist_dev_l
      2.83000000	      2.26328509	      6.57220102	      6.03186863	      0.08231916	      0.99624856	      0.31333371	      8.98189747	     -6.85940325	    -20.23546643	      9.53064261	      0.61120144	      0.16634109	     -1.29927281	      5.13147571	     -7.51536936	    -13.04960424	      1.44965464	      0.19862731	     24.10560670	      3.69536122	      0.42072221	      1.44780225	      4.20920237	     -7.51536936	    -17.15943492	     -7.62193520	     -8.88547739	    -11.43280444	    -12.55453588	     24.54781949	     38.82031528	     90.00000001	      0.00000000	      0.00000000	     12.01867668	    -23.02668588	     15.46596874	     48.52083119	     90.00000001	      0.00000000	      0.00000000
      2.84000000	      2.42469894	      6.68896717	      6.08052207	      0.08937466	      0.99765442	      0.31475803	      8.04048706	     -6.81530435	    -20.49353350	      8.99426737	      0.72154203	      0.15697958	     -1.01817235	      5.62879336	     -7.51508888	    -12.03002688	      1.01637270	      0.42387633	     26.82849329	      4.35380237	      0.46824554	      0.37184522	      3.43905738	     -7.51508888	    -17.37724984	     -7.74066549	     -8.79291075	    -10.84299557	    -12.62019199	     24.57207137	     38.97608275	     90.00000001	      0.00000000	      0.00000000	     11.50965810	    -23.08995060	     15.51217222	     48.42702881	     90.00000001	      0.00000000	      0.00000000
      2.85000000	      2.56472540	      6.77851877	      6.08537602	      0.09631848	      0.99886740	      0.31624361	      7.16379591	     -6.72499004	    -20.72501262	      8.49266009	      0.78786760	      0.14822488	     -0.77761070	      6.09656347	     -7.51478226	    -10.89557908	      0.54578283	      0.65591606	     29.62044180	      5.03904048	      0.51697424	     -0.57435722	      2.65961324	     -7.51478226	    -17.56617969	     -7.84710303	     -8.62259766	    -10.23756961	    -12.71811195	     24.64336516	     39.16672590	     90.00000001	      0.00000000	      0.00000000	     10.96963294	    -23.15132440	     15.43998178	     48.38072284	     90.00000001	      0.00000000	      0.00000000
      2.86000000	      2.69168544	      6.84436173	      6.07777448	      0.10309549	      0.99990787	      0.31772271	      6.33606391	     -6.61010244	    -20.89538286	      8.02103599	      0.86398411	      0.13999349	     -0.52546176	      6.51262290	     -7.51445960	     -9.66082904	      0.05427030	      0.87642580	     32.43690655	      5.70336981	      0.56613082	     -1.39356724	      1.89118229	     -7.51445960	    -17.73733679	     -7.93829525	     -8.42068707	     -9.59761701	    -12.85019244	     24.74930987	     39.38303888	     90.00000001	      0.00000000	      0.00000000	     10.41614628	    -23.19450879	     15.25528690	     48.37177953	     90.00000001	      0.00000000	      0.00000000
      2.87000000	      3.01546712	      7.17454431	      5.76308088	      0.10983346	      1.00118112	      0.31951993	      5.45876869	     -6.82696618	    -20.83142128	      7.87749530	      1.02612664	      0.13748823	     -0.26798808	      6.75218872	     -7.51428823	     -8.86444027	     -0.10177813	      1.20921333	     34.67571013	      6.48352903	      0.60520531	     -1.93819322	      1.67924791	     -7.51428823	    -18.12845457	     -8.38122070	     -7.93286412	     -8.92753213	    -12.94475936	     24.72968662	     39.60204581	     90.00000001	      0.00000000	      0.00000000	      9.99536679	    -23.25421848	     15.10217125	     48.32526574	     90.00000001	      0.00000000	      0.00000000
      2.88000000	      2.89273552	      6.84463396	      5.94551816	      0.11620561	      1.00151415	      0.32081997	      4.87798714	     -6.21573196	    -21.02537867	      7.19146548	      0.96173716	      0.12551475	     -0.12935621	      7.18167920	     -7.51388904	     -6.95154412	     -1.04477112	      1.31361708	     37.90906227	      7.01327209	      0.66163795	     -2.51456277	      0.33431563	     -7.51388904	    -17.99467378	     -8.03392255	     -7.84396319	     -8.19461418	    -13.19870870	     25.07489159	     39.82351384	     90.00000001	      0.00000000	      0.00000000	      9.22405905	    -23.22853782	     14.55579582	     48.42721323	     90.00000001	      0.00000000	      0.00000000
      2.89000000	      3.07121815	      6.94495687	      5.85113407	      0.12267036	      1.00231195	      0.32217280	      4.03465842	     -6.18295591	    -21.01715341	      6.77102150	      1.13662724	      0.11817662	      0.27082234	      7.43114366	     -7.51363004	     -5.68460396	     -1.40054851	      1.46561248	     40.34659177	      7.44537484	      0.70418087	     -2.81709058	     -0.32884501	     -7.51363004	    -18.20969706	     -8.17883010	     -7.53563802	     -7.45025960	    -13.37803798	     25.18390473	     40.01047274	     90.00000001	      0.00000000	      0.00000000	      8.64677743	    -23.24180657	     14.20147537	     48.42789112	     90.00000001	      0.00000000	      0.00000000
